<?xml version="1.0" encoding="UTF-8"?>
<svg version="1.1" xmlns="http://www.w3.org/2000/svg" width="960" height="960">
<path d="M0 0 C3.89881735 1.109108 7.80158425 2.20413515 11.70417404 3.29988098 C16.69609931 4.70202746 21.68786028 6.10472463 26.67827988 7.51222229 C44.22397614 12.45928177 61.79733385 17.30484602 79.37339401 22.14271545 C84.87338849 23.6566655 90.37282715 25.17262737 95.87214279 26.68904114 C97.72593772 27.20020199 99.57973309 27.71136125 101.4335289 28.22251892 C102.35300749 28.47605259 103.27248608 28.72958626 104.21982765 28.99080276 C108.87086222 30.27315169 113.52201815 31.55506029 118.17316818 32.83699036 C135.32516242 37.56445912 152.47658235 42.2940103 169.62770844 47.02462769 C171.42485777 47.52031474 173.22200998 48.01599141 175.01916504 48.51165771 C205.42621724 56.89814596 235.82824464 65.30271816 266.22838211 73.7142334 C294.64975854 81.57817408 323.07345284 89.43363104 351.50127029 97.27425766 C354.19096257 98.016098 356.88064416 98.75797706 359.57032394 99.49986267 C375.88719849 104.00041698 392.20436618 108.49990718 408.52228928 112.99665833 C428.72594129 118.5642553 448.92892752 124.13423201 469.12903976 129.71466064 C478.16099396 132.20968676 487.19380831 134.7015357 496.22805023 137.1882658 C502.08154196 138.79984332 507.9337857 140.41589513 513.7849884 142.03576374 C517.09640703 142.95237912 520.40833924 143.86700851 523.7218132 144.77616882 C527.27882752 145.75327547 530.83365408 146.73796706 534.38801193 147.72468567 C535.41478546 148.00476471 536.44155899 148.28484375 537.49944687 148.57341003 C542.3520292 149.92927748 546.90324567 151.27860466 551.25910568 153.89265442 C551.95659151 155.21012766 552.62870525 156.54179635 553.25910568 157.89265442 C554.58398681 158.25813887 555.91929082 158.58641102 557.25910568 158.89265442 C562.50584445 162.04069768 564.64379249 166.1520774 566.25910568 171.89265442 C566.83581304 177.61217464 566.77541843 183.30132287 566.72907639 189.04450989 C566.72955536 190.81722292 566.73179058 192.58993617 566.73561096 194.36264515 C566.74101383 199.27687182 566.7211499 204.19072987 566.69746137 209.10489058 C566.67582286 214.53403556 566.67780098 219.96318356 566.67657089 225.3923645 C566.67028194 236.31077388 566.64197661 247.22902804 566.60672992 258.14737815 C566.56747516 270.50578225 566.54582181 282.86419152 566.52586978 295.22263962 C566.49420273 314.83101534 566.45544622 334.43936556 566.40372849 354.04769897 C566.29719006 394.67213458 566.23284969 435.29642638 566.1997595 475.92099033 C566.19522476 481.48413621 566.19064945 487.04728205 566.18603134 492.61042786 C566.18465204 494.27746338 566.18465204 494.27746338 566.18324488 495.97817639 C566.15772494 526.46253026 566.11413833 556.94685916 566.06717396 587.43118668 C566.06025726 591.95099634 566.05338952 596.47080607 566.04655075 600.99061584 C566.04485129 602.10792097 566.04315183 603.22522609 566.04140087 604.37638894 C566.01585011 621.34589965 566.00030515 638.31540146 565.98948288 655.28492737 C565.97698581 674.80949121 565.95009069 694.33397833 565.90499419 713.85849518 C565.87977162 724.96514965 565.86589462 736.07168899 565.86758676 747.17837264 C565.86761853 754.67217369 565.85312274 762.16585645 565.82691005 769.65961139 C565.81230566 773.95381869 565.80408274 778.24778316 565.81330836 782.54201102 C565.82158984 786.4609504 565.81145857 790.37939824 565.78677029 794.29826465 C565.78109286 795.70952136 565.78208999 797.12082481 565.7905929 798.53206734 C565.87652171 814.12398635 560.34584689 822.72374038 549.70051193 833.68171692 C548.07939405 835.29890958 546.45302551 836.91085491 544.82160568 838.51765442 C544.01400803 839.32460754 543.20641037 840.13156067 542.37434006 840.96296692 C538.03474501 845.27109029 533.61773495 849.42830879 528.96589279 853.39802551 C527.22659696 854.87351882 527.22659696 854.87351882 525.65974045 856.58650208 C524.25910568 857.89265442 524.25910568 857.89265442 522.25910568 857.89265442 C522.05672287 858.43277161 521.85434006 858.97288879 521.64582443 859.52937317 C519.6927382 862.85787223 516.92709004 865.1693884 514.07160568 867.70515442 C512.88827582 868.77431898 511.70597539 869.84462406 510.52473068 870.91609192 C509.95818771 871.42881653 509.39164474 871.94154114 508.80793381 872.46980286 C506.37089942 874.70861692 504.06542821 877.0677827 501.75519943 879.43562317 C500.20310606 880.94719191 498.57720234 882.29216085 496.88410568 883.64265442 C494.04115956 885.68899985 494.04115956 885.68899985 493.25910568 888.89265442 C494.24910568 889.22265442 495.23910568 889.55265442 496.25910568 889.89265442 C470.64808824 915.78004975 444.02477158 930.47262247 407.07160568 931.01765442 C405.13385044 930.9903236 403.19628129 930.94736284 401.25910568 930.89265442 C400.10023849 930.86429504 398.94137131 930.83593567 397.74738693 930.80671692 C375.77651987 929.87367706 355.03557496 923.45551608 334.14008713 917.10176086 C330.58823138 916.0240167 327.03293554 914.95775218 323.47785568 913.89070129 C318.7159416 912.46047366 313.95506625 911.02690226 309.1957922 909.58791351 C302.27661567 907.49600965 295.34948045 905.43425099 288.41155624 903.40551758 C283.28377099 901.90509803 278.17630454 900.34440522 273.07160568 898.76765442 C262.41949342 895.49790773 251.71673331 892.41162554 241.00910568 889.33015442 C230.88157997 886.41545945 220.76850221 883.49706779 210.74543381 880.23786926 C202.05857444 877.44903364 193.27576006 874.97857926 184.50910568 872.45515442 C169.33483018 868.08579064 154.20693286 863.59495527 139.12336349 858.92097473 C136.89962533 858.23203125 134.67566135 857.5438163 132.45148849 856.85627747 C130.3589709 856.20902611 128.26708398 855.55972895 126.17609787 854.907547 C119.58255296 852.86578975 112.96081546 850.93928368 106.32160568 849.05281067 C96.2811076 846.19961571 86.27268919 843.24636383 76.27222824 840.25617981 C73.28269301 839.36233285 70.29268148 838.47009413 67.30256271 837.57820129 C59.8851402 835.36539601 52.46849451 833.14999184 45.05183029 830.93464661 C38.74786242 829.05177435 32.4435872 827.16993728 26.13892746 825.28938293 C23.23614399 824.4231057 20.33379484 823.55538514 17.43146896 822.68757629 C7.43734816 819.70382189 -2.56882899 816.77168767 -12.60786819 813.94221497 C-17.9783917 812.42248979 -23.3048768 810.79601967 -28.61589432 809.08015442 C-34.53058042 807.17986518 -40.46658369 805.37484335 -46.43620682 803.65437317 C-47.11730515 803.45798752 -47.79840347 803.26160187 -48.50014114 803.05926514 C-51.90394936 802.07957154 -55.3094167 801.10606864 -58.71696854 800.13948059 C-65.35294605 798.23956568 -71.85211077 796.18909658 -78.31413651 793.76374817 C-81.14055219 792.74919574 -83.98479164 791.97002811 -86.89030838 791.22077942 C-94.01505565 789.36123095 -100.47513095 786.82786474 -106.99089432 783.39265442 C-107.69359451 783.02502991 -108.39629471 782.6574054 -109.12028885 782.27864075 C-113.31827481 779.97275504 -116.49540053 777.47739843 -119.74089432 773.89265442 C-120.68835526 772.86784973 -120.68835526 772.86784973 -121.65495682 771.82234192 C-128.77073168 763.27691366 -129.97463339 755.04353007 -130.11589432 744.20515442 C-130.12999344 743.40931946 -130.14409256 742.6134845 -130.15861893 741.79353333 C-130.06587934 730.49339091 -124.94411405 722.84870254 -117.09245682 715.01960754 C-116.05218338 713.99770325 -116.05218338 713.99770325 -114.99089432 712.95515442 C-114.31284744 712.27775208 -113.63480057 711.60034973 -112.93620682 710.90242004 C-109.54607216 707.54128844 -106.10013386 704.29805614 -102.48308182 701.18171692 C-93.80306706 693.67286592 -86.10110112 683.34101387 -83.74089432 671.89265442 C-84.99901932 671.68640442 -86.25714432 671.48015442 -87.55339432 671.26765442 C-92.95938302 670.17404695 -98.21612207 668.67660693 -103.49089432 667.08015442 C-104.30662918 666.84409485 -105.12236404 666.60803528 -105.96281815 666.36482239 C-111.75507924 664.56536547 -116.63775974 662.48156263 -119.8568688 656.98829222 C-122.56679898 651.21638752 -123.32675817 646.44257392 -123.30838394 640.10762024 C-123.32164581 639.12545878 -123.33490768 638.14329733 -123.34857142 637.13137341 C-123.38964957 633.73467235 -123.40250962 630.33839686 -123.41643143 626.94148254 C-123.4417559 624.37868192 -123.46896048 621.81589936 -123.49778271 619.25313568 C-123.56253718 613.27615826 -123.61276513 607.29916938 -123.65679932 601.32200623 C-123.73567708 590.80285972 -123.85233985 580.28422562 -123.97187164 569.76547366 C-124.27658685 542.92555837 -124.54683612 516.08533307 -124.81215263 489.24500391 C-124.9062666 479.72512668 -125.00121239 470.20525802 -125.09668159 460.68539429 C-125.11056177 459.30103816 -125.12444189 457.91668203 -125.13832195 456.53232589 C-125.15925631 454.4445122 -125.1801915 452.35669852 -125.20112881 450.26888486 C-125.39478651 430.95636971 -125.58765955 411.64384686 -125.77878284 392.33130646 C-125.78950527 391.2478343 -125.78950527 391.2478343 -125.80044432 390.14247382 C-125.85843152 384.28248715 -125.91639456 378.42250025 -125.97435614 372.56251333 C-126.20050286 349.70053212 -126.4290686 326.83857625 -126.65959549 303.97663879 C-126.92051653 278.09983259 -127.17972384 252.22301005 -127.43639988 226.34616137 C-127.46390334 223.57390368 -127.49141172 220.80164604 -127.51892281 218.02938843 C-127.52569206 217.34712898 -127.53246131 216.66486954 -127.53943569 215.96193556 C-127.64037883 205.79124282 -127.74258948 195.62056335 -127.84547997 185.44989014 C-127.96272168 173.8575162 -128.07809979 162.26512539 -128.19125647 150.67271084 C-128.24873788 144.78864487 -128.3069477 138.90458908 -128.36747551 133.02055359 C-128.48584085 121.46672212 -128.59186676 109.91298948 -128.66850496 98.35879892 C-128.71450165 91.67420999 -128.78556951 84.99025873 -128.8676645 78.30602059 C-128.92123917 73.59614354 -128.95748201 68.88623331 -128.98985939 64.17616755 C-129.00878493 61.93347527 -129.03470302 59.69082943 -129.06813587 57.4483065 C-129.11334612 54.34440523 -129.13308903 51.24128538 -129.14709759 48.13710785 C-129.1663317 47.2298904 -129.18556582 46.32267295 -129.20538279 45.38796407 C-129.19658039 38.56589029 -127.78259966 32.42344606 -123.2307623 27.13970307 C-121.74089432 25.89265442 -121.74089432 25.89265442 -119.74089432 25.89265442 C-119.41089432 24.90265442 -119.08089432 23.91265442 -118.74089432 22.89265442 C-116.81369431 21.35512338 -114.9008633 19.96143616 -112.86589432 18.58015442 C-111.59004832 17.69241953 -110.31537315 16.80300031 -109.04167557 15.91218567 C-108.35154373 15.43088196 -107.6614119 14.94957825 -106.95036697 14.45368958 C-102.93956362 11.61997945 -99.00081778 8.68864616 -95.05339432 5.76765442 C-94.23910965 5.16880432 -93.42482498 4.56995422 -92.58586502 3.95295715 C-89.15517238 1.42890532 -85.73209997 -1.09926959 -82.36589432 -3.70890808 C-77.13946333 -7.70132064 -73.27472363 -10.11065975 -66.74089432 -11.10734558 C-65.75089432 -11.31359558 -64.76089432 -11.51984558 -63.74089432 -11.73234558 C-42.53752699 -14.3827665 -20.14927642 -5.74811571 0 0 Z M-87.74089432 53.89265442 C-87.74089432 55.87265442 -87.74089432 57.85265442 -87.74089432 59.89265442 C-76.87706733 63.36305704 -65.96608861 66.56153758 -54.96355057 69.56062317 C-53.37206179 69.99678742 -51.78064849 70.43322715 -50.18930435 70.86991882 C-46.81544788 71.79525123 -43.44114403 72.71892561 -40.06645584 73.64122009 C-34.70222464 75.10735161 -29.33911432 76.57755282 -23.97624588 78.04866028 C-23.07346468 78.29630033 -22.17068348 78.54394037 -21.24054527 78.79908466 C-19.41266084 79.30050144 -17.58478062 79.80193355 -15.7569046 80.30338097 C-13.00654981 81.05778001 -10.25610114 81.81183597 -7.50563431 82.56582642 C8.02417409 86.82375644 23.54546655 91.11197576 39.06272125 95.41540146 C42.34465297 96.32551579 45.62671051 97.23517616 48.90876389 98.14485168 C49.56492408 98.32671807 50.22108427 98.50858446 50.89712811 98.69596195 C52.22788004 99.06480031 53.55863305 99.4336348 54.88938713 99.80246544 C56.22414309 100.17241388 57.55889422 100.54237975 58.89364052 100.91236305 C75.88799675 105.6230449 92.88582571 110.32115398 109.88410568 115.01765442 C110.6697427 115.23472549 111.45537971 115.45179657 112.26482391 115.67544556 C138.86533051 123.02503901 165.46804919 130.36660928 192.07160568 137.70515442 C192.97615242 137.95467487 193.88069916 138.20419533 194.8126564 138.46127701 C213.2036069 143.53442325 231.59472971 148.60694396 249.9864769 153.67720127 C285.94918278 163.59144437 321.91097241 173.50889857 357.85997963 183.4727211 C363.0465164 184.90981031 368.23402079 186.34333977 373.42237282 187.77386093 C377.66393455 188.94348202 381.90501924 190.11482466 386.14582443 191.28718567 C387.3939271 191.63220375 387.3939271 191.63220375 388.66724396 191.98419189 C400.51269309 195.26229531 412.33020819 198.62903884 424.13484001 202.05099869 C429.06949403 203.47797997 434.0086311 204.8893782 438.94789028 206.30032539 C442.80644653 207.40435029 446.66105639 208.5192407 450.5080986 209.66279602 C471.29722972 215.83633702 495.41176333 222.73072609 516.25910568 212.89265442 C519.78828019 210.26827499 522.78016685 207.54052376 525.25910568 203.89265442 C525.25910568 202.90265442 525.25910568 201.91265442 525.25910568 200.89265442 C522.300653 202.26316257 519.87409229 203.87088285 517.32160568 205.89265442 C507.39912296 213.43080673 494.22670679 213.086647 482.25910568 211.89265442 C474.53476703 210.55590087 467.02120022 208.29016988 459.50031662 206.11286926 C454.66300243 204.7132615 449.80885024 203.37597794 444.95441818 202.03718567 C431.28938888 198.26128325 417.6313871 194.45897751 404.01301193 190.51765442 C402.80161545 190.16719055 401.59021896 189.81672668 400.34211349 189.4556427 C399.20097092 189.12548157 398.05982834 188.79532043 396.88410568 188.45515442 C388.00626793 185.88689495 379.10864993 183.53932755 370.08771896 181.52571106 C365.46278764 180.48309927 361.01268135 179.20985175 356.52985764 177.66682434 C345.51775307 173.91245561 334.27774154 170.82864677 322.97785568 168.08406067 C307.25179025 164.18436414 291.63397923 159.70189864 276.13019943 154.99812317 C273.12548228 154.11391213 270.10136127 153.34737922 267.05988693 152.59968567 C257.99986314 150.35917103 249.01016226 147.8570929 240.00910568 145.39265442 C238.06137421 144.86042714 236.11361992 144.32828333 234.16584396 143.79621887 C220.30959677 140.0092821 206.45904683 136.20164988 192.61103439 132.38471985 C182.50365097 129.59887816 172.38911635 126.84522606 162.25910568 124.14265442 C153.2933746 121.74990949 144.37308903 119.22822026 135.48762131 116.55183411 C129.88472404 114.88336987 124.25288317 113.36084923 118.59246349 111.90211391 C106.29176012 108.73148303 94.06185121 105.34898183 81.84894943 101.85749817 C79.8621642 101.29163561 77.8753103 100.72601408 75.8883934 100.16061401 C70.69920188 98.68335562 65.51084536 97.20318713 60.32270432 95.72224426 C55.1984258 94.25993697 50.07349858 92.79990783 44.94855881 91.33992004 C43.43546599 90.90886176 43.43546599 90.90886176 41.89180565 90.46909523 C39.85415608 89.88861795 37.81650057 89.30816152 35.77883911 88.72772598 C33.7424839 88.14764188 31.70614509 87.56750019 29.66982269 86.98730087 C15.28868814 82.88986258 0.9053297 78.80035487 -13.48320198 74.72896004 C-15.39679049 74.18740447 -17.31028463 73.64551525 -19.22366905 73.10323906 C-29.35191179 70.23336494 -39.48884868 67.39807687 -49.64348221 64.62287903 C-50.55295577 64.37398454 -51.46242933 64.12509005 -52.3994627 63.8686533 C-57.1243799 62.58222807 -61.85425611 61.34823169 -66.61589432 60.20515442 C-70.49792066 59.25967522 -74.14254012 58.06794286 -77.85026932 56.58796692 C-81.07841208 55.40075739 -84.39333784 54.66976574 -87.74089432 53.89265442 Z M-87.74089432 81.89265442 C-87.01428429 177.89651323 -86.09471059 273.89844772 -85.14606094 369.9003334 C-85.10117015 374.4438349 -85.05628372 378.98733643 -85.01140213 383.53083801 C-85.00026536 384.65805074 -84.98912859 385.78526346 -84.97765434 386.94663414 C-84.79467738 405.47482857 -84.61504889 424.00305401 -84.43668997 442.53129341 C-84.25080462 461.83591198 -84.06203763 481.14050069 -83.8704443 500.44506347 C-83.76401946 511.17513629 -83.65878875 521.90521762 -83.5568428 532.63533401 C-83.47083848 541.68674829 -83.38220111 550.73813207 -83.29020333 559.7894875 C-83.24359677 564.38254728 -83.19816167 568.9756099 -83.15614319 573.56871414 C-82.98341822 592.36184016 -82.70902124 611.11952201 -81.74089432 629.89265442 C-80.47541841 630.37239523 -79.20944222 630.85081648 -77.94326019 631.32869053 C-77.23832436 631.59525473 -76.53338852 631.86181893 -75.807091 632.13646084 C-73.00492536 633.1620068 -70.16803186 634.01315845 -67.30241776 634.84358215 C-66.07822128 635.20005829 -64.85402481 635.55653442 -63.59273148 635.92381287 C-62.2619207 636.3079924 -60.93109965 636.69213637 -59.60026932 637.07624817 C-58.18562218 637.48711488 -56.7710635 637.89828627 -55.35658646 638.30973816 C-52.32593515 639.19075929 -49.29476622 640.06996712 -46.26317215 640.94773865 C-38.90965627 643.07709866 -31.5590219 645.21637539 -24.20806122 647.35453606 C-21.67170382 648.09218483 -19.13524333 648.82947832 -16.59877396 649.56674194 C-1.19690527 654.04473051 14.19208484 658.56591398 29.57772446 663.09929657 C35.90609739 664.96378277 42.23489602 666.82682359 48.56379318 668.68952942 C49.27537582 668.89896809 49.98695847 669.10840675 50.72010422 669.32419205 C69.06046326 674.72158128 87.40988686 680.08798003 105.75910568 685.45515442 C135.40919035 694.12819457 165.05483277 702.81624866 194.69660568 711.51765442 C195.66686691 711.80247303 196.63712814 712.08729164 197.63679123 712.38074112 C206.34656603 714.93749029 215.05631505 717.49432728 223.76603317 720.05126953 C235.68130002 723.54921638 247.59693025 727.04592191 259.51301193 730.54109192 C260.27585621 730.76484686 261.03870049 730.9886018 261.82466125 731.21913719 C268.6401311 733.2182034 275.455645 735.21711935 282.27119064 737.21592712 C286.83619212 738.55471806 291.40117464 739.89357362 295.96613693 741.23249817 C297.11053553 741.56815513 297.11053553 741.56815513 298.27805328 741.91059303 C310.49012043 745.49257487 322.70129469 749.07759259 334.91215706 752.66367912 C372.123441 763.59180124 409.33590264 774.51583388 446.56459045 785.38454819 C448.93604698 786.07707102 451.30735906 786.7700864 453.67863083 787.46324158 C457.33071002 788.53071349 460.98317721 789.5968464 464.63598251 790.6618309 C465.96365002 791.04912564 467.29118764 791.43686596 468.61858749 791.82507706 C470.41074696 792.34910301 472.20344019 792.87130248 473.99616623 793.39338684 C474.99552704 793.68501205 475.99488785 793.97663727 477.02453232 794.27709961 C479.03348627 794.93691716 479.03348627 794.93691716 480.25910568 794.89265442 C481.31695748 747.23307645 481.62208056 699.5697052 481.94327349 651.9006752 C481.9978701 643.80536869 482.05377835 635.71007211 482.11052895 627.61478043 C482.11871954 626.44639777 482.12691013 625.27801511 482.13534893 624.07422692 C482.15201491 621.697807 482.16868439 619.3213871 482.18535732 616.94496723 C482.33157542 596.08672666 482.47475634 575.22846636 482.61628342 554.37019348 C482.75228111 534.32687999 482.89091218 514.28358687 483.03229904 494.24031067 C483.18768771 472.21172488 483.34146259 450.18312882 483.49267715 428.15451396 C483.50894975 425.78432567 483.52522343 423.4141374 483.54149818 421.04394913 C483.54949553 419.87898676 483.55749287 418.7140244 483.56573256 417.51376014 C483.62100463 409.47634954 483.67733376 401.43894677 483.73408318 393.40154648 C484.09942295 341.56448846 484.36796157 289.73111625 484.25910568 237.89265442 C483.45867246 237.76459978 482.65823923 237.63654514 481.83355045 237.50461006 C480.77099128 237.33167868 479.7084321 237.15874729 478.61367416 236.98057556 C477.04177433 236.7266186 477.04177433 236.7266186 475.43811893 236.4675312 C470.40056864 235.55656592 465.50918397 234.2029787 460.58332443 232.82234192 C459.46347656 232.51386826 458.34362869 232.20539459 457.18984604 231.88757324 C454.09619688 231.03417495 451.00410405 230.17538762 447.91257858 229.31433487 C444.52934903 228.37355615 441.14412421 227.44000865 437.75910568 226.50569153 C431.79121028 224.85760986 425.82443792 223.20551338 419.85822678 221.55134583 C409.9491247 218.80452137 400.03597914 216.0724399 390.12238693 213.34187317 C350.18336734 202.33933176 310.25483342 191.29890354 270.32816696 180.25163269 C241.99573408 172.41243062 213.66046009 164.58361115 185.32160568 156.76765442 C183.98569633 156.3991934 183.98569633 156.3991934 182.62279892 156.02328873 C165.53231232 151.30951777 148.44149496 146.59694668 131.35041428 141.8853302 C120.40317955 138.8674164 109.45606901 135.84905251 98.50910568 132.83015442 C97.61229836 132.58284325 96.71549103 132.33553207 95.79150772 132.08072662 C68.71577164 124.61387189 41.64579969 117.12641328 14.58023834 109.62276459 C10.25360214 108.42331064 5.9268862 107.22414446 1.60017014 106.02497864 C0.76032672 105.79220844 -0.0795167 105.55943825 -0.94480991 105.31961441 C-5.09784503 104.16856362 -9.25088695 103.01753739 -13.40393448 101.86653137 C-15.02211461 101.41804797 -16.64029394 100.96956167 -18.25847244 100.52107239 C-19.04977145 100.3017593 -19.84107046 100.08244621 -20.65634823 99.85648727 C-25.33113347 98.56077496 -30.00577771 97.26455536 -34.68031979 95.96796608 C-41.79264782 93.99520923 -48.90537529 92.0239094 -56.01905727 90.05603981 C-59.19954473 89.17616669 -62.37971054 88.29516049 -65.55940628 87.41242981 C-68.9643084 86.46728721 -72.37005423 85.52525106 -75.77605057 84.58406067 C-76.77054214 84.30719925 -77.76503372 84.03033783 -78.78966141 83.74508667 C-79.68630508 83.49802475 -80.58294876 83.25096283 -81.50676346 82.99641418 C-82.282341 82.78154861 -83.05791855 82.56668304 -83.85699844 82.3453064 C-85.74208435 81.81477934 -85.74208435 81.81477934 -87.74089432 81.89265442 Z M513.00910568 234.89265442 C512.26402756 235.08343567 511.51894943 235.27421692 510.75129318 235.47077942 C508.91946663 235.94047854 507.08913369 236.41599596 505.25910568 236.89265442 C504.04883276 281.89955139 503.87755415 326.92068517 503.57493788 371.94051074 C503.52041366 380.04447225 503.46449787 388.14842317 503.40768242 396.25236893 C503.39949182 397.42072198 503.39130123 398.58907502 503.38286244 399.79283271 C503.3661964 402.16922587 503.34952692 404.545619 503.33285404 406.92201211 C503.17760959 429.06972625 503.02630283 451.21746588 502.87645418 473.3652171 C502.7491998 492.16100501 502.6187707 510.9567686 502.48591232 529.7525177 C502.33016817 551.78630271 502.17636947 573.82009994 502.02553421 595.85391915 C502.00926225 598.23034741 501.99298858 600.60677565 501.97671318 602.98320389 C501.96871584 604.15116602 501.96071849 605.31912815 501.95247881 606.52248307 C501.89738282 614.55170236 501.84101814 622.58091211 501.78412819 630.61011887 C501.38279196 687.37187327 501.16314168 744.1294413 501.25910568 800.89265442 C507.33851809 802.91912522 512.98698626 802.11811028 519.07160568 800.37702942 C520.04742599 800.10084778 521.02324631 799.82466614 522.02863693 799.54011536 C522.76469162 799.32645325 523.50074631 799.11279114 524.25910568 798.89265442 C524.43338478 758.59863662 524.59618557 718.30457747 524.75006133 678.01047695 C524.75907244 675.65135848 524.7681018 673.29224008 524.77713156 670.93312168 C525.09375816 588.11124352 525.31379354 505.28995356 525.32226419 359.64404893 C525.32160331 357.25908741 525.32096073 354.87412588 525.32032013 352.48916435 C525.30949108 312.62365468 525.2896343 272.75815411 525.25910568 232.89265442 C520.91979772 232.89265442 517.16712392 233.80539877 513.00910568 234.89265442 Z M-26.24089432 693.64265442 C-28.27061087 695.3285727 -28.27061087 695.3285727 -29.74089432 696.89265442 C-30.23589432 695.90265442 -30.23589432 695.90265442 -30.74089432 694.89265442 C-34.85324262 695.42697346 -36.86745569 697.59075717 -39.80339432 700.39265442 C-43.58605603 703.95027982 -47.4348404 707.32971673 -51.49089432 710.58015442 C-54.57033882 713.06371771 -57.49324891 715.54687881 -60.24089432 718.39265442 C-63.82489754 722.10465776 -67.80289894 725.24719964 -71.81511307 728.48249817 C-74.88042774 731.00759717 -77.85842298 733.60434618 -80.80339432 736.26765442 C-82.15110916 737.48581848 -82.15110916 737.48581848 -83.52605057 738.72859192 C-85.88443409 740.88320083 -85.88443409 740.88320083 -87.74089432 743.89265442 C-87.65301019 747.2322513 -86.88770015 748.70796321 -84.80339432 751.33015442 C-77.8381245 757.15823732 -70.49548451 760.55890297 -61.99089432 763.58015442 C-60.79581253 764.00820374 -60.79581253 764.00820374 -59.57658768 764.44490051 C-54.84021621 766.06136758 -50.13246422 767.27560039 -45.22917557 768.27937317 C-36.57298057 770.06435481 -28.1522768 772.52843415 -19.67839432 775.01765442 C-17.97970193 775.51282089 -16.28097083 776.00785458 -14.58220291 776.50276184 C-3.85418839 779.63791118 6.8279614 782.90360464 17.48835373 786.26179504 C31.47768295 790.63868876 45.56523893 794.68390802 59.64533615 798.75715637 C70.43916996 801.88296291 81.20720661 805.07826134 91.95223618 808.36804199 C100.1931588 810.88600213 108.46318241 813.29267825 116.74723434 815.66423035 C129.53682933 819.32840355 142.29568841 823.06993955 154.99689865 827.03157043 C160.56588493 828.76620953 166.14461418 830.45588724 171.74348068 832.09187317 C172.98782883 832.45579163 174.23217697 832.81971008 175.51423264 833.19465637 C177.91512419 833.89424653 180.31725461 834.58960323 182.7207756 835.28010559 C183.79432297 835.59310608 184.86787033 835.90610657 185.97394943 836.22859192 C186.92390793 836.50235657 187.87386642 836.77612122 188.85261154 837.05818176 C191.25910568 837.89265442 191.25910568 837.89265442 194.25910568 839.89265442 C195.92784514 840.27046311 197.61347876 840.57657587 199.30500412 840.83381653 C204.86390483 841.77290016 210.1396595 843.18477195 215.52473068 844.83406067 C216.46843521 845.11759399 217.41213974 845.40112732 218.38444138 845.69325256 C221.42762103 846.60859162 224.46832289 847.53188783 227.50910568 848.45515442 C230.69224918 849.41455165 233.87603886 850.37178077 237.05991745 851.32873535 C239.172147 851.96361395 241.28418828 852.59911928 243.39603806 853.23526001 C251.87480911 855.78677115 260.37352632 858.26226685 268.88410568 860.70515442 C278.31941444 863.42058269 287.70651133 866.2570536 297.07160568 869.20515442 C313.47313269 874.36149501 330.01182091 879.0354405 346.5562706 883.70880127 C351.03020536 884.9731019 355.5004252 886.24899415 359.96613693 887.54206848 C360.9087236 887.81416641 361.85131027 888.08626434 362.82246017 888.36660767 C364.62240257 888.88669793 366.42168469 889.40908108 368.22016525 889.9342041 C378.90215716 893.01542165 389.1738924 894.04558267 400.25910568 894.14265442 C401.15629318 894.15216125 402.05348068 894.16166809 402.97785568 894.17146301 C407.8293641 894.14680361 411.69888213 893.72073237 416.25910568 891.89265442 C417.88210991 891.40677071 419.50704293 890.92726935 421.13410568 890.45515442 C431.85743778 887.21731722 440.47752964 883.28856541 448.25910568 874.89265442 C449.34222769 873.85076802 450.42558222 872.80912332 451.50910568 871.76765442 C461.73238578 861.49992527 470.81775078 850.14593566 474.25910568 835.89265442 C463.74127438 832.30103551 453.16518864 829.02706185 442.49348068 825.92781067 C440.88397893 825.45802868 439.27455529 824.987979 437.66520309 824.51768494 C434.23752035 823.51657823 430.8093432 822.5171906 427.38074875 821.51921082 C421.89516733 819.92243372 416.41077785 818.32158967 410.92658615 816.720047 C405.24765519 815.06179072 399.56867772 813.40369572 393.88932419 811.74688721 C376.80100186 806.76163058 359.7189144 801.75527398 342.63882065 796.74190903 C338.83882201 795.62661656 335.03870455 794.51172908 331.23859787 793.39680481 C322.44254528 790.81602941 313.64665465 788.23470233 304.85079575 785.65326691 C301.25460489 784.59785225 297.65840542 783.54246695 294.06220627 782.48708057 C278.51975596 777.92579283 262.97733516 773.36440455 247.43496323 768.80284977 C210.71234912 758.02508546 173.98882195 747.25043702 137.26388931 736.48057556 C135.31887149 735.91018129 133.3738579 735.33977258 131.42884445 734.7693634 C115.67365093 730.14875166 115.67365093 730.14875166 99.91730881 725.53205872 C97.58462367 724.84888158 95.25194144 724.16569453 92.91926193 723.48249817 C91.73119949 723.13454697 90.54313705 722.78659576 89.31907272 722.42810059 C80.99166269 719.98839564 72.66579948 717.54346146 64.3405962 715.09623718 C56.89097216 712.90650341 49.44066873 710.71909041 41.98997784 708.5329895 C37.38907364 707.18290932 32.78850981 705.83169392 28.18876266 704.47767639 C23.84960908 703.20038889 19.50955945 701.92619044 15.16886711 700.65414238 C13.56955019 700.18488041 11.97055022 699.71453651 10.371912 699.24296761 C6.04463945 697.96686232 1.71257094 696.71126824 -2.63055038 695.49012375 C-4.07478922 695.08123854 -5.51710032 694.66549931 -6.95768356 694.24391556 C-9.12958779 693.6114351 -11.30741558 693.00571192 -13.48845291 692.40559387 C-14.75208664 692.04794449 -16.01572037 691.6902951 -17.31764603 691.32180786 C-21.32559729 690.81935349 -22.90207364 691.46700857 -26.24089432 693.64265442 Z " fill="#000000" transform="translate(290.74089431762695,16.107345581054688)"/>
<path d="M0 0 C2.7839183 1.39195915 2.97898997 3.15575779 4 6 C4.66 6 5.32 6 6 6 C6 7.32 6 8.64 6 10 C5.01 10 4.02 10 3 10 C3 10.66 3 11.32 3 12 C2.34 12 1.68 12 1 12 C1 11.01 1 10.02 1 9 C0.34 8.67 -0.32 8.34 -1 8 C-1.04241723 5.66705225 -1.04092937 3.33297433 -1 1 C-0.67 0.67 -0.34 0.34 0 0 Z " fill="#000000" transform="translate(6,203)"/>
<path d="M0 0 C0.33 0 0.66 0 1 0 C1 5.28 1 10.56 1 16 C-0.32 15.67 -1.64 15.34 -3 15 C-3 14.01 -3 13.02 -3 12 C-2.34 12 -1.68 12 -1 12 C-0.67 10.68 -0.34 9.36 0 8 C-0.66 8 -1.32 8 -2 8 C-1.125 2.25 -1.125 2.25 0 0 Z " fill="#010101" transform="translate(19,194)"/>
<path d="M0 0 C0.99 0 1.98 0 3 0 C3 0.99 3 1.98 3 3 C2.01 3 1.02 3 0 3 C0 2.01 0 1.02 0 0 Z " fill="#000000" transform="translate(16,215)"/>
<path d="M0 0 C0.33 0 0.66 0 1 0 C1 1.98 1 3.96 1 6 C0.67 6 0.34 6 0 6 C0 4.02 0 2.04 0 0 Z " fill="#000000" transform="translate(19,218)"/>
<path d="M0 0 C0.99 0.33 1.98 0.66 3 1 C2.01 1 1.02 1 0 1 C0 0.67 0 0.34 0 0 Z " fill="#000000" transform="translate(9,215)"/>
<path d="M0 0 C0.99 1.485 0.99 1.485 2 3 C1.34 3 0.68 3 0 3 C0 2.01 0 1.02 0 0 Z " fill="#000000" transform="translate(5,193)"/>
<path d="" fill="#000000" transform="translate(0,0)"/>
<path d="" fill="#000000" transform="translate(0,0)"/>
<path d="" fill="#000000" transform="translate(0,0)"/>
</svg>
